<?xml version="1.0" encoding="UTF-8" standalone="no"?>
<!DOCTYPE svg PUBLIC "-//W3C//DTD SVG 1.1//EN"
 "http://www.w3.org/Graphics/SVG/1.1/DTD/svg11.dtd">
<!-- Generated by graphviz version 2.38.0 (20140413.2041)
 -->
<!-- Title: Library Pages: 1 -->
<svg width="450pt" height="612pt"
 viewBox="0.00 0.00 450.00 612.00" xmlns="http://www.w3.org/2000/svg" xmlns:xlink="http://www.w3.org/1999/xlink">
<g id="graph0" class="graph" transform="scale(1 1) rotate(0) translate(4 608)">
<title>Library</title>
<polygon fill="white" stroke="none" points="-4,4 -4,-608 446,-608 446,4 -4,4"/>
<!-- Node1 -->
<g id="node1" class="node"><title>Node1</title>
<g id="a_node1"><a xlink:title=" ">
<polygon fill="#bfbfbf" stroke="black" points="138.5,-0.5 138.5,-167.5 242.5,-167.5 242.5,-0.5 138.5,-0.5"/>
<text text-anchor="middle" x="190.5" y="-155.5" font-family="Helvetica,sans-Serif" font-size="10.00">Library</text>
<polyline fill="none" stroke="black" points="138.5,-148.5 242.5,-148.5 "/>
<text text-anchor="middle" x="190.5" y="-136.5" font-family="Helvetica,sans-Serif" font-size="10.00"> </text>
<polyline fill="none" stroke="black" points="138.5,-129.5 242.5,-129.5 "/>
<text text-anchor="start" x="146.5" y="-117.5" font-family="Helvetica,sans-Serif" font-size="10.00">+ Library()</text>
<text text-anchor="start" x="146.5" y="-106.5" font-family="Helvetica,sans-Serif" font-size="10.00">+ ~Library()</text>
<text text-anchor="start" x="146.5" y="-95.5" font-family="Helvetica,sans-Serif" font-size="10.00">+ ImportData()</text>
<text text-anchor="start" x="146.5" y="-84.5" font-family="Helvetica,sans-Serif" font-size="10.00">+ BookAdd()</text>
<text text-anchor="start" x="146.5" y="-73.5" font-family="Helvetica,sans-Serif" font-size="10.00">+ BookListAdd()</text>
<text text-anchor="start" x="146.5" y="-62.5" font-family="Helvetica,sans-Serif" font-size="10.00">+ BTreeInsert()</text>
<text text-anchor="start" x="146.5" y="-51.5" font-family="Helvetica,sans-Serif" font-size="10.00">+ BookShow()</text>
<text text-anchor="start" x="146.5" y="-40.5" font-family="Helvetica,sans-Serif" font-size="10.00">+ BookListShow()</text>
<text text-anchor="start" x="146.5" y="-29.5" font-family="Helvetica,sans-Serif" font-size="10.00">+ BookBTreeShow()</text>
<text text-anchor="start" x="146.5" y="-18.5" font-family="Helvetica,sans-Serif" font-size="10.00">+ BookFind()</text>
<text text-anchor="start" x="146.5" y="-7.5" font-family="Helvetica,sans-Serif" font-size="10.00">和 15 更多...</text>
</a>
</g>
</g>
<!-- Node2 -->
<g id="node2" class="node"><title>Node2</title>
<g id="a_node2"><a xlink:href="struct_book___list.html" target="_top" xlink:title=" ">
<polygon fill="white" stroke="black" points="0,-215.5 0,-305.5 75,-305.5 75,-215.5 0,-215.5"/>
<text text-anchor="middle" x="37.5" y="-293.5" font-family="Helvetica,sans-Serif" font-size="10.00">Book_List</text>
<polyline fill="none" stroke="black" points="0,-286.5 75,-286.5 "/>
<text text-anchor="middle" x="37.5" y="-274.5" font-family="Helvetica,sans-Serif" font-size="10.00"> </text>
<polyline fill="none" stroke="black" points="0,-267.5 75,-267.5 "/>
<text text-anchor="start" x="8" y="-255.5" font-family="Helvetica,sans-Serif" font-size="10.00">+ Book_List()</text>
<text text-anchor="start" x="8" y="-244.5" font-family="Helvetica,sans-Serif" font-size="10.00">+ Book_List()</text>
<text text-anchor="start" x="8" y="-233.5" font-family="Helvetica,sans-Serif" font-size="10.00">+ Book_List()</text>
<text text-anchor="start" x="8" y="-222.5" font-family="Helvetica,sans-Serif" font-size="10.00">+ Book_List()</text>
</a>
</g>
</g>
<!-- Node2&#45;&gt;Node1 -->
<g id="edge1" class="edge"><title>Node2&#45;&gt;Node1</title>
<path fill="none" stroke="#404040" d="M75.3202,-216.365C91.8934,-197.463 111.753,-174.812 130.278,-153.685"/>
<polygon fill="none" stroke="#404040" points="130.488,-153.445 131.436,-146.297 138.399,-144.422 137.451,-151.571 130.488,-153.445"/>
<text text-anchor="middle" x="117" y="-189" font-family="Helvetica,sans-Serif" font-size="10.00"> &#45;b_first</text>
</g>
<!-- Node2&#45;&gt;Node2 -->
<g id="edge2" class="edge"><title>Node2&#45;&gt;Node2</title>
<path fill="none" stroke="#404040" d="M75.1128,-273.156C85.2715,-272.488 93,-268.27 93,-260.5 93,-256.251 90.6886,-253.064 86.9324,-250.939"/>
<polygon fill="none" stroke="#404040" points="86.7215,-250.884 79.9039,-253.234 75.1128,-247.844 81.9304,-245.494 86.7215,-250.884"/>
<text text-anchor="middle" x="112.5" y="-258" font-family="Helvetica,sans-Serif" font-size="10.00"> +b_next</text>
</g>
<!-- Node3 -->
<g id="node3" class="node"><title>Node3</title>
<g id="a_node3"><a xlink:href="struct_book___info.html" target="_top" xlink:title=" ">
<polygon fill="white" stroke="black" points="87.5,-353.5 87.5,-465.5 177.5,-465.5 177.5,-353.5 87.5,-353.5"/>
<text text-anchor="middle" x="132.5" y="-453.5" font-family="Helvetica,sans-Serif" font-size="10.00">Book_Info</text>
<polyline fill="none" stroke="black" points="87.5,-446.5 177.5,-446.5 "/>
<text text-anchor="start" x="95.5" y="-434.5" font-family="Helvetica,sans-Serif" font-size="10.00">+ book_number</text>
<text text-anchor="start" x="95.5" y="-423.5" font-family="Helvetica,sans-Serif" font-size="10.00">+ book_name</text>
<text text-anchor="start" x="95.5" y="-412.5" font-family="Helvetica,sans-Serif" font-size="10.00">+ book_author</text>
<text text-anchor="start" x="95.5" y="-401.5" font-family="Helvetica,sans-Serif" font-size="10.00">+ book_exist</text>
<text text-anchor="start" x="95.5" y="-390.5" font-family="Helvetica,sans-Serif" font-size="10.00">+ book_inventory</text>
<polyline fill="none" stroke="black" points="87.5,-383.5 177.5,-383.5 "/>
<text text-anchor="start" x="95.5" y="-371.5" font-family="Helvetica,sans-Serif" font-size="10.00">+ Book_Info()</text>
<text text-anchor="start" x="95.5" y="-360.5" font-family="Helvetica,sans-Serif" font-size="10.00">+ Book_Info()</text>
</a>
</g>
</g>
<!-- Node3&#45;&gt;Node2 -->
<g id="edge3" class="edge"><title>Node3&#45;&gt;Node2</title>
<path fill="none" stroke="#404040" d="M96.8552,-353.344C89.0367,-341.246 80.7605,-328.44 72.9497,-316.354"/>
<polygon fill="none" stroke="#404040" points="72.7421,-316.032 66.1259,-313.164 66.2287,-305.954 72.8449,-308.822 72.7421,-316.032"/>
<text text-anchor="middle" x="103" y="-327" font-family="Helvetica,sans-Serif" font-size="10.00"> +b_info</text>
</g>
<!-- Node7 -->
<g id="node7" class="node"><title>Node7</title>
<g id="a_node7"><a xlink:href="struct_b_tree_node.html" target="_top" xlink:title=" ">
<polygon fill="white" stroke="black" points="150.5,-221 150.5,-300 230.5,-300 230.5,-221 150.5,-221"/>
<text text-anchor="middle" x="190.5" y="-288" font-family="Helvetica,sans-Serif" font-size="10.00">BTreeNode</text>
<polyline fill="none" stroke="black" points="150.5,-281 230.5,-281 "/>
<text text-anchor="start" x="158.5" y="-269" font-family="Helvetica,sans-Serif" font-size="10.00">+ num</text>
<polyline fill="none" stroke="black" points="150.5,-262 230.5,-262 "/>
<text text-anchor="start" x="158.5" y="-250" font-family="Helvetica,sans-Serif" font-size="10.00">+ BTreeNode()</text>
<text text-anchor="start" x="158.5" y="-239" font-family="Helvetica,sans-Serif" font-size="10.00">+ BTreeNode()</text>
<text text-anchor="start" x="158.5" y="-228" font-family="Helvetica,sans-Serif" font-size="10.00">+ BTreeNode()</text>
</a>
</g>
</g>
<!-- Node3&#45;&gt;Node7 -->
<g id="edge11" class="edge"><title>Node3&#45;&gt;Node7</title>
<path fill="none" stroke="#404040" d="M154.262,-353.344C159.682,-339.608 165.462,-324.958 170.777,-311.487"/>
<polygon fill="none" stroke="#404040" points="170.904,-311.167 169.385,-304.117 175.308,-300.004 176.827,-307.053 170.904,-311.167"/>
<text text-anchor="middle" x="178" y="-327" font-family="Helvetica,sans-Serif" font-size="10.00"> +key</text>
</g>
<!-- Node4 -->
<g id="node4" class="node"><title>Node4</title>
<g id="a_node4"><a xlink:href="struct_reader___list.html" target="_top" xlink:title=" ">
<polygon fill="white" stroke="black" points="304,-226.5 304,-294.5 387,-294.5 387,-226.5 304,-226.5"/>
<text text-anchor="middle" x="345.5" y="-282.5" font-family="Helvetica,sans-Serif" font-size="10.00">Reader_List</text>
<polyline fill="none" stroke="black" points="304,-275.5 387,-275.5 "/>
<text text-anchor="middle" x="345.5" y="-263.5" font-family="Helvetica,sans-Serif" font-size="10.00"> </text>
<polyline fill="none" stroke="black" points="304,-256.5 387,-256.5 "/>
<text text-anchor="start" x="312" y="-244.5" font-family="Helvetica,sans-Serif" font-size="10.00">+ Reader_List()</text>
<text text-anchor="start" x="312" y="-233.5" font-family="Helvetica,sans-Serif" font-size="10.00">+ Reader_List()</text>
</a>
</g>
</g>
<!-- Node4&#45;&gt;Node1 -->
<g id="edge4" class="edge"><title>Node4&#45;&gt;Node1</title>
<path fill="none" stroke="#404040" d="M315.981,-226.267C297.519,-205.483 273.068,-177.955 250.657,-152.725"/>
<polygon fill="none" stroke="#404040" points="250.476,-152.521 243.501,-150.692 242.507,-143.55 249.482,-145.379 250.476,-152.521"/>
<text text-anchor="middle" x="302" y="-189" font-family="Helvetica,sans-Serif" font-size="10.00"> &#45;r_first</text>
</g>
<!-- Node4&#45;&gt;Node4 -->
<g id="edge5" class="edge"><title>Node4&#45;&gt;Node4</title>
<path fill="none" stroke="#404040" d="M387.205,-273.051C397.408,-272.121 405,-267.938 405,-260.5 405,-256.433 402.729,-253.338 399.003,-251.217"/>
<polygon fill="none" stroke="#404040" points="398.77,-251.153 391.92,-253.406 387.205,-247.949 394.055,-245.696 398.77,-251.153"/>
<text text-anchor="middle" x="423.5" y="-258" font-family="Helvetica,sans-Serif" font-size="10.00"> +r_next</text>
</g>
<!-- Node5 -->
<g id="node5" class="node"><title>Node5</title>
<g id="a_node5"><a xlink:href="struct_reader___info.html" target="_top" xlink:title=" ">
<polygon fill="white" stroke="black" points="304.5,-375.5 304.5,-443.5 386.5,-443.5 386.5,-375.5 304.5,-375.5"/>
<text text-anchor="middle" x="345.5" y="-431.5" font-family="Helvetica,sans-Serif" font-size="10.00">Reader_Info</text>
<polyline fill="none" stroke="black" points="304.5,-424.5 386.5,-424.5 "/>
<text text-anchor="start" x="312.5" y="-412.5" font-family="Helvetica,sans-Serif" font-size="10.00">+ reader_ID</text>
<text text-anchor="start" x="312.5" y="-401.5" font-family="Helvetica,sans-Serif" font-size="10.00">+ reader_name</text>
<polyline fill="none" stroke="black" points="304.5,-394.5 386.5,-394.5 "/>
<text text-anchor="middle" x="345.5" y="-382.5" font-family="Helvetica,sans-Serif" font-size="10.00"> </text>
</a>
</g>
</g>
<!-- Node5&#45;&gt;Node4 -->
<g id="edge6" class="edge"><title>Node5&#45;&gt;Node4</title>
<path fill="none" stroke="#404040" d="M345.5,-375.143C345.5,-354.939 345.5,-328.896 345.5,-306.84"/>
<polygon fill="none" stroke="#404040" points="345.5,-306.725 341.5,-300.725 345.5,-294.725 349.5,-300.725 345.5,-306.725"/>
<text text-anchor="middle" x="362" y="-327" font-family="Helvetica,sans-Serif" font-size="10.00"> +r_info</text>
</g>
<!-- Node6 -->
<g id="node6" class="node"><title>Node6</title>
<g id="a_node6"><a xlink:href="struct_reader___books.html" target="_top" xlink:title=" ">
<polygon fill="white" stroke="black" points="295.5,-513.5 295.5,-603.5 395.5,-603.5 395.5,-513.5 295.5,-513.5"/>
<text text-anchor="middle" x="345.5" y="-591.5" font-family="Helvetica,sans-Serif" font-size="10.00">Reader_Books</text>
<polyline fill="none" stroke="black" points="295.5,-584.5 395.5,-584.5 "/>
<text text-anchor="start" x="303.5" y="-572.5" font-family="Helvetica,sans-Serif" font-size="10.00">+ borbook_number</text>
<text text-anchor="start" x="303.5" y="-561.5" font-family="Helvetica,sans-Serif" font-size="10.00">+ borbook_name</text>
<text text-anchor="start" x="303.5" y="-550.5" font-family="Helvetica,sans-Serif" font-size="10.00">+ borbook_author</text>
<text text-anchor="start" x="303.5" y="-539.5" font-family="Helvetica,sans-Serif" font-size="10.00">+ borbook_quantity</text>
<polyline fill="none" stroke="black" points="295.5,-532.5 395.5,-532.5 "/>
<text text-anchor="start" x="303.5" y="-520.5" font-family="Helvetica,sans-Serif" font-size="10.00">+ Reader_Books()</text>
</a>
</g>
</g>
<!-- Node6&#45;&gt;Node5 -->
<g id="edge7" class="edge"><title>Node6&#45;&gt;Node5</title>
<path fill="none" stroke="#404040" d="M345.5,-513.395C345.5,-495.255 345.5,-474.255 345.5,-455.974"/>
<polygon fill="none" stroke="#404040" points="345.5,-455.822 341.5,-449.822 345.5,-443.822 349.5,-449.822 345.5,-455.822"/>
<text text-anchor="middle" x="367.5" y="-487" font-family="Helvetica,sans-Serif" font-size="10.00"> +borbook</text>
</g>
<!-- Node6&#45;&gt;Node6 -->
<g id="edge8" class="edge"><title>Node6&#45;&gt;Node6</title>
<path fill="none" stroke="#404040" d="M395.614,-570.802C406.018,-569.507 413.5,-565.406 413.5,-558.5 413.5,-554.615 411.133,-551.618 407.21,-549.509"/>
<polygon fill="none" stroke="#404040" points="407.153,-549.493 400.285,-551.692 395.614,-546.198 402.482,-543.999 407.153,-549.493"/>
<text text-anchor="middle" x="427.5" y="-556" font-family="Helvetica,sans-Serif" font-size="10.00"> +next</text>
</g>
<!-- Node7&#45;&gt;Node1 -->
<g id="edge9" class="edge"><title>Node7&#45;&gt;Node1</title>
<path fill="none" stroke="#404040" d="M190.5,-220.773C190.5,-208.457 190.5,-194.25 190.5,-179.765"/>
<polygon fill="none" stroke="#404040" points="190.5,-179.567 186.5,-173.567 190.5,-167.567 194.5,-173.567 190.5,-179.567"/>
<text text-anchor="middle" x="215.5" y="-189" font-family="Helvetica,sans-Serif" font-size="10.00"> &#45;btree_root</text>
</g>
<!-- Node7&#45;&gt;Node7 -->
<g id="edge10" class="edge"><title>Node7&#45;&gt;Node7</title>
<path fill="none" stroke="#404040" d="M230.619,-273.097C240.832,-272.269 248.5,-268.07 248.5,-260.5 248.5,-256.36 246.207,-253.228 242.458,-251.105"/>
<polygon fill="none" stroke="#404040" points="242.202,-251.036 235.366,-253.33 230.619,-247.903 237.455,-245.608 242.202,-251.036"/>
<text text-anchor="middle" x="267" y="-263.5" font-family="Helvetica,sans-Serif" font-size="10.00"> +parent</text>
<text text-anchor="middle" x="267" y="-252.5" font-family="Helvetica,sans-Serif" font-size="10.00">+ptr</text>
</g>
</g>
</svg>
